HIERARCHY
ROOT SpineBase
{
  OFFSET 0.000000 0.000000 0.000000
  CHANNELS 6 Xposition Yposition Zposition Zrotation Xrotation Yrotation
  JOINT SpineMid
  {
    OFFSET 0.000000 31.124152 0.000000
    CHANNELS 3 Zrotation Xrotation Yrotation
    JOINT SpineShoulder
    {
      OFFSET -0.120370 23.017586 -0.828128
      CHANNELS 3 Zrotation Xrotation Yrotation
      JOINT Neck
      {
        OFFSET -0.081577 7.585365 -0.611858
        CHANNELS 3 Zrotation Xrotation Yrotation
        JOINT Head
        {
          OFFSET -2.868458 11.579171 5.494402
          CHANNELS 3 Zrotation Xrotation Yrotation
          End Site
          {
            OFFSET 0 0 0
          }
        }
      }
      JOINT ShoulderLeft
      {
        OFFSET -7.263775 -2.630207 10.009529
        CHANNELS 3 Zrotation Xrotation Yrotation
        JOINT ElbowLeft
        {
          OFFSET 5.812048 -19.573400 -8.825820
          CHANNELS 3 Zrotation Xrotation Yrotation
          JOINT WristLeft
          {
            OFFSET -3.490530 -24.921093 12.646339
            CHANNELS 3 Zrotation Xrotation Yrotation
            JOINT HandLeft
            {
              OFFSET -1.130162 -8.350144 4.625881
              CHANNELS 3 Zrotation Xrotation Yrotation
              JOINT HandTipLeft
              {
                OFFSET -0.314393 -0.325816 -0.401921
                CHANNELS 3 Zrotation Xrotation Yrotation
                End Site
                {
                  OFFSET 0 0 0
                }
              }
              JOINT ThumbLeft
              {
                OFFSET -0.034753 0.470662 -2.421179
                CHANNELS 3 Zrotation Xrotation Yrotation
                End Site
                {
                  OFFSET 0 0 0
                }
              }
            }
          }
        }
      }
      JOINT ShoulderRight
      {
        OFFSET 5.912606 -4.774251 -13.337087
        CHANNELS 3 Zrotation Xrotation Yrotation
        JOINT ElbowRight
        {
          OFFSET 5.508624 -26.981615 -7.623512
          CHANNELS 3 Zrotation Xrotation Yrotation
          JOINT WristRight
          {
            OFFSET -2.643298 -21.797084 -4.062622
            CHANNELS 3 Zrotation Xrotation Yrotation
            JOINT HandRight
            {
              OFFSET -3.425245 -8.583788 0.802520
              CHANNELS 3 Zrotation Xrotation Yrotation
              JOINT HandTipRight
              {
                OFFSET -3.684524 -7.212632 -1.423295
                CHANNELS 3 Zrotation Xrotation Yrotation
                End Site
                {
                  OFFSET 0 0 0
                }
              }
              JOINT ThumbRight
              {
                OFFSET -3.610437 1.368434 6.583213
                CHANNELS 3 Zrotation Xrotation Yrotation
                End Site
                {
                  OFFSET 0 0 0
                }
              }
            }
          }
        }
      }
    }
  }
  JOINT HipLeft
  {
    OFFSET -3.951374 1.523471 1.064699
    CHANNELS 3 Zrotation Xrotation Yrotation
    JOINT KneeLeft
    {
      OFFSET 21.119059 -38.035730 6.598174
      CHANNELS 3 Zrotation Xrotation Yrotation
      JOINT AnkleLeft
      {
        OFFSET 4.178988 -32.120992 2.142647
        CHANNELS 3 Zrotation Xrotation Yrotation
        JOINT FootLeft
        {
          OFFSET -3.754272 -4.309721 -13.143148
          CHANNELS 3 Zrotation Xrotation Yrotation
          End Site
          {
            OFFSET 0 0 0
          }
        }
      }
    }
  }
  JOINT HipRight
  {
    OFFSET 3.215385 0.030397 -8.571239
    CHANNELS 3 Zrotation Xrotation Yrotation
    JOINT KneeRight
    {
      OFFSET 0.054178 -39.380657 -7.341337
      CHANNELS 3 Zrotation Xrotation Yrotation
      JOINT AnkleRight
      {
        OFFSET 10.589550 -33.648874 1.722647
        CHANNELS 3 Zrotation Xrotation Yrotation
        JOINT FootRight
        {
          OFFSET -1.381723 -8.667747 -3.518609
          CHANNELS 3 Zrotation Xrotation Yrotation
          End Site
          {
            OFFSET 0 0 0
          }
        }
      }
    }
  }
}
MOTION
Frames: 5
Frame Time: 0.033333
29.054765 81.728038 344.801264 -0.000000 0.000000 53.359859 0.000000 0.000000 -53.359859 -0.000000 0.000000 0.000000 -0.000000 0.000000 0.000000 0.000000 0.000000 0.000000 -0.000000 0.000000 0.000000 -0.000000 0.000000 0.000000 -0.000000 0.000000 0.000000 -0.000000 0.000000 0.000000 0.000000 0.000000 0.000000 0.000000 0.000000 0.000000 -0.000000 0.000000 0.000000 -0.000000 0.000000 0.000000 -0.000000 0.000000 0.000000 -0.000000 0.000000 0.000000 0.000000 0.000000 0.000000 0.000000 0.000000 0.000000 0.000000 0.000000 -53.359859 -0.000000 0.000000 0.000000 -0.000000 0.000000 0.000000 0.000000 0.000000 0.000000 0.000000 0.000000 -53.359859 -0.000000 0.000000 0.000000 -0.000000 0.000000 0.000000 0.000000 0.000000 0.000000
28.941394 81.803651 344.724490 0.092007 -0.034214 53.761520 -0.026794 0.094435 -53.761470 -0.000000 0.000000 0.000000 -0.000000 0.000000 0.000000 0.000000 0.000000 0.000000 -0.000000 0.000000 0.000000 -0.000000 0.000000 0.000000 -0.000000 0.000000 0.000000 -0.000000 0.000000 0.000000 0.000000 0.000000 0.000000 0.000000 0.000000 0.000000 -0.000000 0.000000 0.000000 -0.000000 0.000000 0.000000 -0.000000 0.000000 0.000000 0.009684 -3.047176 1.563520 0.000000 0.000000 0.000000 0.000000 0.000000 0.000000 -0.026794 0.094435 -53.761470 -0.000000 0.000000 0.000000 -0.000000 0.000000 0.000000 0.000000 0.000000 0.000000 -0.026794 0.094435 -53.761470 -0.000000 0.000000 0.000000 -11.297942 9.970314 3.800577 0.000000 0.000000 0.000000
28.846046 81.856797 344.690406 0.185224 -0.079072 54.110880 -0.044521 0.196413 -54.110676 -0.000000 0.000000 0.000000 1.187848 -0.386750 -0.654822 0.000000 0.000000 0.000000 -0.000000 0.000000 0.000000 -0.000000 0.000000 0.000000 -0.000000 0.000000 0.000000 -0.000000 0.000000 0.000000 0.000000 0.000000 0.000000 0.000000 0.000000 0.000000 -0.000000 0.000000 0.000000 -0.000000 0.000000 0.000000 1.377721 0.162058 0.062505 -1.455819 -5.425670 2.658941 0.000000 0.000000 0.000000 0.000000 0.000000 0.000000 -0.044521 0.196413 -54.110676 -0.000000 0.000000 0.000000 -0.000000 0.000000 0.000000 0.000000 0.000000 0.000000 -0.044521 0.196413 -54.110676 -0.000000 0.000000 0.000000 -21.663615 17.558406 8.642131 0.000000 0.000000 0.000000
28.768719 81.887476 344.699013 0.279484 -0.134571 54.410200 -0.053221 0.305594 -54.409730 -0.000000 0.000000 0.000000 1.754766 -0.427499 -0.930168 0.000000 0.000000 0.000000 -0.000000 0.000000 0.000000 -0.000000 0.000000 0.000000 -0.000000 0.000000 0.000000 -0.000000 0.000000 0.000000 0.000000 0.000000 0.000000 0.000000 0.000000 0.000000 -0.000000 0.000000 0.000000 -0.000000 0.000000 0.000000 2.109453 0.149912 0.135673 -2.411720 -6.863959 3.368561 0.000000 0.000000 0.000000 0.000000 0.000000 0.000000 -0.053221 0.305594 -54.409730 -0.000000 0.000000 0.000000 -0.401652 0.807536 0.511700 0.000000 0.000000 0.000000 -0.053221 0.305594 -54.409730 -0.000000 0.000000 0.000000 -30.157554 22.529862 13.326219 0.000000 0.000000 0.000000
28.709414 81.895687 344.750311 0.374615 -0.200668 54.661340 -0.052989 0.421658 -54.660489 -0.000000 0.000000 0.000000 2.306237 -0.367566 -1.174023 0.000000 0.000000 0.000000 -0.000000 0.000000 0.000000 -0.000000 0.000000 0.000000 -0.000000 0.000000 0.000000 -0.000000 0.000000 0.000000 0.000000 0.000000 0.000000 0.000000 0.000000 0.000000 -0.000000 0.000000 0.000000 -0.000000 0.000000 0.000000 2.869084 0.070141 0.240970 -3.558278 -7.516017 3.694216 0.000000 0.000000 0.000000 0.000000 0.000000 0.000000 -0.052989 0.421658 -54.660489 -0.000000 0.000000 0.000000 -0.544911 1.216411 0.586487 0.000000 0.000000 0.000000 -0.052989 0.421658 -54.660489 -0.000000 0.000000 0.000000 -36.513096 25.510070 17.142611 0.000000 0.000000 0.000000
